<svg xmlns="http://www.w3.org/2000/svg" xmlns:xlink="http://www.w3.org/1999/xlink" width="545" height="858" xml:space="preserve" overflow="hidden"><defs><clipPath id="clip0"><rect x="2128" y="728" width="545" height="858"/></clipPath></defs><g clip-path="url(#clip0)" transform="translate(-2128 -728)"><path d="M2128.96 986.965 2193.26 986.965 2238.96 986.965 2238.96 997.82 2238.96 1443.97 2193.26 1443.97 2193.26 997.82 2128.96 997.82Z" fill="#002060" fill-rule="evenodd"/><path d="M2616.95 728.966C2616.26 728.597 2530.95 848.929 2493.45 908.358 2455.94 967.784 2418.78 1032.93 2391.92 1085.53 2365.06 1138.13 2347.26 1184.27 2332.26 1223.95 2317.26 1263.63 2307.98 1294.37 2301.91 1323.61 2295.84 1352.85 2291.21 1379.32 2295.84 1399.4 2300.48 1419.47 2310.52 1436.79 2329.73 1444.09 2348.94 1451.39 2361.5 1446.78 2376 1443.2 2390.51 1439.63 2406.82 1429.17 2416.76 1422.64 2426.71 1416.1 2445.38 1399.02 2455.72 1389.86 2466.06 1380.7 2461.18 1385.36 2478.8 1367.68 2496.43 1349.99 2563.85 1283.93 2561.48 1283.75 2559.11 1283.56 2488.83 1347.55 2464.57 1366.57 2440.31 1385.59 2442.95 1382.02 2415.93 1397.87 2391.41 1410.19 2375.02 1410.92 2361.78 1407.77 2348.53 1404.62 2341.02 1395.41 2336.45 1378.98 2331.88 1362.55 2331.56 1336.9 2334.35 1309.22 2337.14 1281.53 2343.95 1245.54 2353.19 1212.88 2362.44 1180.21 2372.91 1151.42 2389.83 1113.21 2406.75 1075.01 2436.75 1017.43 2454.72 983.657 2472.69 949.881 2470.42 952.282 2497.63 910.57 2524.85 868.861 2617.65 729.336 2616.95 728.966Z" fill="#C00000" fill-rule="evenodd"/><path d="M2540.55 1482.38C2537.58 1482.38 2535.26 1483.39 2533.6 1485.42 2531.94 1487.45 2531.12 1490.31 2531.12 1494.01 2531.12 1497.63 2531.94 1500.45 2533.59 1502.48 2535.23 1504.51 2537.48 1505.52 2540.31 1505.52 2542.04 1505.52 2543.59 1505.07 2544.98 1504.15 2546.36 1503.25 2547.43 1501.94 2548.19 1500.25 2548.95 1498.55 2549.33 1496.54 2549.33 1494.2 2549.33 1490.54 2548.55 1487.66 2546.98 1485.55 2545.41 1483.44 2543.27 1482.38 2540.55 1482.38ZM2319.72 1481.39C2319.67 1481.89 2319.51 1482.7 2319.23 1483.84 2318.96 1484.98 2317.56 1489.86 2315.05 1498.48 2318.21 1498.48 2321.37 1498.48 2324.52 1498.48 2323.37 1494.45 2322.22 1490.42 2321.07 1486.38 2320.58 1484.6 2320.25 1482.94 2320.06 1481.39 2319.95 1481.39 2319.83 1481.39 2319.72 1481.39ZM2572.06 1471.71C2576.76 1471.71 2581.46 1471.71 2586.17 1471.71 2591.76 1478.52 2597.34 1485.32 2602.93 1492.12 2603.14 1492.39 2603.39 1492.71 2603.69 1493.08 2603.99 1493.45 2604.29 1493.84 2604.59 1494.23 2604.89 1494.62 2605.17 1495.01 2605.44 1495.38 2605.7 1495.75 2605.91 1496.08 2606.04 1496.37 2606.09 1496.37 2606.14 1496.37 2606.18 1496.37 2606.04 1495.46 2605.98 1493.89 2605.98 1491.66 2605.98 1485.01 2605.98 1478.36 2605.98 1471.71 2610.59 1471.71 2615.19 1471.71 2619.8 1471.71 2619.8 1486.54 2619.8 1501.36 2619.8 1516.19 2615.44 1516.19 2611.07 1516.19 2606.7 1516.19 2600.87 1509.04 2595.04 1501.88 2589.21 1494.72 2587.83 1493.03 2586.7 1491.5 2585.82 1490.14 2585.77 1490.14 2585.73 1490.14 2585.68 1490.14 2585.82 1492.33 2585.89 1494.79 2585.89 1497.52 2585.89 1503.74 2585.89 1509.97 2585.89 1516.19 2581.28 1516.19 2576.67 1516.19 2572.06 1516.19 2572.06 1501.36 2572.06 1486.54 2572.06 1471.71ZM2479.95 1471.71C2484.93 1471.71 2489.9 1471.71 2494.88 1471.71 2494.88 1483.04 2494.88 1494.37 2494.88 1505.71 2500.58 1505.71 2506.27 1505.71 2511.96 1505.71 2511.96 1509.2 2511.96 1512.7 2511.96 1516.19 2501.29 1516.19 2490.62 1516.19 2479.95 1516.19 2479.95 1501.36 2479.95 1486.54 2479.95 1471.71ZM2351.3 1471.71C2356 1471.71 2360.7 1471.71 2365.4 1471.71 2370.99 1478.52 2376.58 1485.32 2382.17 1492.12 2382.37 1492.39 2382.63 1492.71 2382.93 1493.08 2383.23 1493.45 2383.52 1493.84 2383.82 1494.23 2384.12 1494.62 2384.41 1495.01 2384.67 1495.38 2384.94 1495.75 2385.14 1496.08 2385.28 1496.37 2385.32 1496.37 2385.37 1496.37 2385.42 1496.37 2385.28 1495.46 2385.21 1493.89 2385.21 1491.66 2385.21 1485.01 2385.21 1478.36 2385.21 1471.71 2389.82 1471.71 2394.43 1471.71 2399.04 1471.71 2399.04 1486.54 2399.04 1501.36 2399.04 1516.19 2394.67 1516.19 2390.3 1516.19 2385.93 1516.19 2380.1 1509.04 2374.27 1501.88 2368.44 1494.72 2367.06 1493.03 2365.93 1491.5 2365.05 1490.14 2365.01 1490.14 2364.96 1490.14 2364.92 1490.14 2365.05 1492.33 2365.12 1494.79 2365.12 1497.52 2365.12 1503.74 2365.12 1509.97 2365.12 1516.19 2360.51 1516.19 2355.91 1516.19 2351.3 1516.19 2351.3 1501.36 2351.3 1486.54 2351.3 1471.71ZM2311.08 1471.71C2317.25 1471.71 2323.43 1471.71 2329.61 1471.71 2334.96 1486.54 2340.32 1501.36 2345.68 1516.19 2340.27 1516.19 2334.87 1516.19 2329.46 1516.19 2328.74 1513.46 2328.01 1510.73 2327.29 1508 2322.36 1508 2317.42 1508 2312.49 1508 2311.71 1510.73 2310.92 1513.46 2310.14 1516.19 2304.76 1516.19 2299.38 1516.19 2294 1516.19 2299.69 1501.36 2305.38 1486.54 2311.08 1471.71ZM2241.67 1471.71C2246.65 1471.71 2251.63 1471.71 2256.61 1471.71 2256.61 1477.2 2256.61 1482.69 2256.61 1488.18 2262.32 1488.18 2268.04 1488.18 2273.75 1488.18 2273.75 1482.69 2273.75 1477.2 2273.75 1471.71 2278.73 1471.71 2283.71 1471.71 2288.69 1471.71 2288.69 1486.54 2288.69 1501.36 2288.69 1516.19 2283.71 1516.19 2278.73 1516.19 2273.75 1516.19 2273.75 1510.66 2273.75 1505.13 2273.75 1499.6 2268.04 1499.6 2262.32 1499.6 2256.61 1499.6 2256.61 1505.13 2256.61 1510.66 2256.61 1516.19 2251.63 1516.19 2246.65 1516.19 2241.67 1516.19 2241.67 1501.36 2241.67 1486.54 2241.67 1471.71ZM2192.96 1471.71C2207.26 1471.71 2221.56 1471.71 2235.86 1471.71 2235.86 1475.21 2235.86 1478.7 2235.86 1482.2 2231.18 1482.2 2226.5 1482.2 2221.82 1482.2 2221.82 1493.53 2221.82 1504.86 2221.82 1516.19 2216.82 1516.19 2211.82 1516.19 2206.82 1516.19 2206.82 1504.86 2206.82 1493.53 2206.82 1482.2 2202.2 1482.2 2197.58 1482.2 2192.96 1482.2 2192.96 1478.7 2192.96 1475.21 2192.96 1471.71ZM2655.74 1470.97C2660.05 1470.97 2664.65 1471.52 2669.53 1472.61 2669.53 1476.51 2669.53 1480.41 2669.53 1484.31 2667.25 1483.37 2665.06 1482.73 2662.97 1482.37 2660.87 1482 2658.58 1481.82 2656.09 1481.82 2651.99 1481.82 2648.72 1482.93 2646.29 1485.14 2643.86 1487.35 2642.64 1490.39 2642.64 1494.26 2642.64 1497.96 2643.66 1500.86 2645.7 1502.94 2647.74 1505.03 2650.59 1506.08 2654.26 1506.08 2655.96 1506.08 2657.22 1506 2658.02 1505.83 2658.02 1503.71 2658.02 1501.59 2658.02 1499.47 2654.86 1499.47 2651.69 1499.47 2648.52 1499.47 2648.52 1496.09 2648.52 1492.71 2648.52 1489.33 2656.67 1489.33 2664.81 1489.33 2672.96 1489.33 2672.96 1497.31 2672.96 1505.29 2672.96 1513.27 2671.09 1514.23 2668.3 1515.08 2664.59 1515.83 2660.88 1516.59 2657.34 1516.97 2653.98 1516.97 2645.29 1516.97 2638.58 1515.02 2633.86 1511.12 2629.14 1507.22 2626.77 1501.76 2626.77 1494.72 2626.77 1490.01 2627.97 1485.82 2630.35 1482.16 2632.73 1478.5 2636.1 1475.72 2640.43 1473.82 2644.76 1471.92 2649.86 1470.97 2655.74 1470.97ZM2540.69 1470.97C2545.44 1470.97 2549.68 1471.91 2553.43 1473.8 2557.18 1475.7 2560.07 1478.39 2562.11 1481.9 2564.15 1485.41 2565.16 1489.38 2565.16 1493.83 2565.16 1498.3 2564.09 1502.29 2561.95 1505.81 2559.81 1509.34 2556.81 1512.08 2552.96 1514.03 2549.11 1515.99 2544.8 1516.97 2540.03 1516.97 2535.38 1516.97 2531.14 1516.02 2527.33 1514.13 2523.52 1512.24 2520.55 1509.58 2518.43 1506.16 2516.31 1502.74 2515.25 1498.86 2515.25 1494.54 2515.25 1490.01 2516.32 1485.94 2518.46 1482.32 2520.61 1478.7 2523.61 1475.9 2527.49 1473.93 2531.36 1471.95 2535.76 1470.97 2540.69 1470.97ZM2434.97 1470.97C2439.28 1470.97 2443.88 1471.52 2448.77 1472.61 2448.77 1476.51 2448.77 1480.41 2448.77 1484.31 2446.48 1483.37 2444.3 1482.73 2442.2 1482.37 2440.1 1482 2437.81 1481.82 2435.32 1481.82 2431.22 1481.82 2427.95 1482.93 2425.52 1485.14 2423.09 1487.35 2421.87 1490.39 2421.87 1494.26 2421.87 1497.96 2422.89 1500.86 2424.93 1502.94 2426.97 1505.03 2429.82 1506.08 2433.49 1506.08 2435.19 1506.08 2436.45 1506 2437.25 1505.83 2437.25 1503.71 2437.25 1501.59 2437.25 1499.47 2434.09 1499.47 2430.92 1499.47 2427.75 1499.47 2427.75 1496.09 2427.75 1492.71 2427.75 1489.33 2435.9 1489.33 2444.04 1489.33 2452.19 1489.33 2452.19 1497.31 2452.19 1505.29 2452.19 1513.27 2450.32 1514.23 2447.53 1515.08 2443.83 1515.83 2440.11 1516.59 2436.58 1516.97 2433.21 1516.97 2424.52 1516.97 2417.82 1515.02 2413.09 1511.12 2408.37 1507.22 2406.01 1501.76 2406.01 1494.72 2406.01 1490.01 2407.2 1485.82 2409.58 1482.16 2411.97 1478.5 2415.33 1475.72 2419.66 1473.82 2423.99 1471.92 2429.1 1470.97 2434.97 1470.97Z" fill-rule="evenodd"/><path d="M2455.23 1546.61C2455.23 1550.53 2455.23 1554.46 2455.23 1558.39 2456.85 1558.39 2458.47 1558.39 2460.09 1558.39 2463.06 1558.39 2464.96 1558.23 2465.77 1557.93 2466.58 1557.62 2467.24 1557.01 2467.74 1556.08 2468.24 1555.15 2468.5 1553.91 2468.5 1552.37 2468.5 1550.9 2468.24 1549.71 2467.74 1548.81 2467.24 1547.91 2466.55 1547.29 2465.69 1546.96 2465.07 1546.72 2463.3 1546.61 2460.36 1546.61 2458.65 1546.61 2456.94 1546.61 2455.23 1546.61ZM2642.58 1538.76C2645.14 1538.76 2647.69 1538.76 2650.25 1538.76 2652.8 1544.87 2655.34 1550.99 2657.89 1557.11 2660.4 1550.99 2662.91 1544.87 2665.42 1538.76 2667.93 1538.76 2670.44 1538.76 2672.96 1538.76 2668.97 1547.73 2664.99 1556.72 2661.01 1565.7 2661.01 1572.19 2661.01 1578.68 2661.01 1585.17 2658.83 1585.17 2656.65 1585.17 2654.47 1585.17 2654.47 1578.66 2654.47 1572.14 2654.47 1565.63 2650.51 1556.67 2646.54 1547.71 2642.58 1538.76ZM2592.27 1538.76C2600.88 1538.76 2609.48 1538.76 2618.09 1538.76 2618.09 1541.38 2618.09 1543.99 2618.09 1546.61 2614.88 1546.61 2611.67 1546.61 2608.46 1546.61 2608.46 1559.46 2608.46 1572.32 2608.46 1585.17 2606.28 1585.17 2604.1 1585.17 2601.92 1585.17 2601.92 1572.32 2601.92 1559.46 2601.92 1546.61 2598.71 1546.61 2595.49 1546.61 2592.27 1546.61 2592.27 1543.99 2592.27 1541.38 2592.27 1538.76ZM2558.68 1538.76C2560.86 1538.76 2563.04 1538.76 2565.22 1538.76 2565.22 1554.23 2565.22 1569.7 2565.22 1585.17 2563.04 1585.17 2560.86 1585.17 2558.68 1585.17 2558.68 1569.7 2558.68 1554.23 2558.68 1538.76ZM2448.68 1538.76C2453.29 1538.76 2457.89 1538.76 2462.5 1538.76 2466.03 1538.76 2468.55 1539.17 2470.06 1540.01 2471.58 1540.84 2472.82 1542.29 2473.79 1544.35 2474.77 1546.4 2475.26 1548.87 2475.26 1551.74 2475.26 1555.37 2474.51 1558.29 2473.02 1560.51 2471.54 1562.73 2469.43 1564.12 2466.69 1564.69 2468.09 1565.87 2469.25 1567.16 2470.17 1568.57 2471.09 1569.97 2472.35 1572.49 2473.93 1576.12 2475.25 1579.14 2476.56 1582.16 2477.88 1585.17 2475.27 1585.17 2472.66 1585.17 2470.05 1585.17 2468.47 1581.81 2466.89 1578.44 2465.3 1575.07 2463.59 1571.42 2462.43 1569.14 2461.82 1568.22 2461.21 1567.3 2460.56 1566.67 2459.88 1566.32 2459.19 1565.97 2458.09 1565.8 2456.58 1565.8 2456.13 1565.8 2455.68 1565.8 2455.23 1565.8 2455.23 1572.26 2455.23 1578.72 2455.23 1585.17 2453.05 1585.17 2450.86 1585.17 2448.68 1585.17 2448.68 1569.7 2448.68 1554.23 2448.68 1538.76ZM2395.34 1538.76C2403.38 1538.76 2411.42 1538.76 2419.45 1538.76 2419.45 1541.38 2419.45 1543.99 2419.45 1546.61 2413.6 1546.61 2407.74 1546.61 2401.88 1546.61 2401.88 1550.04 2401.88 1553.47 2401.88 1556.9 2407.32 1556.9 2412.77 1556.9 2418.21 1556.9 2418.21 1559.51 2418.21 1562.11 2418.21 1564.72 2412.77 1564.72 2407.32 1564.72 2401.88 1564.72 2401.88 1568.92 2401.88 1573.12 2401.88 1577.32 2407.94 1577.32 2413.99 1577.32 2420.05 1577.32 2420.05 1579.94 2420.05 1582.56 2420.05 1585.17 2411.81 1585.17 2403.57 1585.17 2395.34 1585.17 2395.34 1569.7 2395.34 1554.23 2395.34 1538.76ZM2338.17 1538.76C2340.54 1538.76 2342.91 1538.76 2345.28 1538.76 2348.02 1550.21 2350.77 1561.66 2353.51 1573.11 2356.16 1561.66 2358.82 1550.21 2361.47 1538.76 2363.79 1538.76 2366.12 1538.76 2368.44 1538.76 2364.56 1554.23 2360.67 1569.7 2356.79 1585.17 2354.46 1585.17 2352.13 1585.17 2349.8 1585.17 2345.92 1569.7 2342.05 1554.23 2338.17 1538.76ZM2305.05 1538.76C2307.23 1538.76 2309.4 1538.76 2311.59 1538.76 2311.59 1554.23 2311.59 1569.7 2311.59 1585.17 2309.4 1585.17 2307.23 1585.17 2305.05 1585.17 2305.05 1569.7 2305.05 1554.23 2305.05 1538.76ZM2249.45 1538.76C2251.58 1538.76 2253.71 1538.76 2255.84 1538.76 2260.27 1549.09 2264.7 1559.42 2269.13 1569.76 2269.13 1559.42 2269.13 1549.09 2269.13 1538.76 2271.17 1538.76 2273.21 1538.76 2275.24 1538.76 2275.24 1554.23 2275.24 1569.7 2275.24 1585.17 2273.04 1585.17 2270.85 1585.17 2268.65 1585.17 2264.29 1575.08 2259.93 1564.99 2255.56 1554.9 2255.56 1564.99 2255.56 1575.08 2255.56 1585.17 2253.53 1585.17 2251.49 1585.17 2249.45 1585.17 2249.45 1569.7 2249.45 1554.23 2249.45 1538.76ZM2192.96 1538.76C2195.14 1538.76 2197.32 1538.76 2199.5 1538.76 2199.5 1547.14 2199.5 1555.52 2199.5 1563.9 2199.5 1567.8 2199.58 1570.35 2199.74 1571.53 2200.03 1573.57 2200.72 1575.16 2201.81 1576.28 2202.91 1577.39 2204.35 1577.95 2206.13 1577.95 2207.65 1577.95 2208.89 1577.56 2209.85 1576.77 2210.8 1575.98 2211.46 1574.88 2211.81 1573.48 2212.16 1572.07 2212.34 1569.06 2212.34 1564.44 2212.34 1555.88 2212.34 1547.31 2212.34 1538.76 2214.52 1538.76 2216.7 1538.76 2218.88 1538.76 2218.88 1546.89 2218.88 1555.01 2218.88 1563.14 2218.88 1569.36 2218.59 1573.86 2218.03 1576.64 2217.46 1579.42 2216.18 1581.66 2214.19 1583.39 2212.2 1585.11 2209.57 1585.97 2206.31 1585.97 2202.92 1585.97 2200.28 1585.25 2198.38 1583.83 2196.47 1582.41 2195.1 1580.4 2194.24 1577.81 2193.38 1575.23 2192.96 1570.46 2192.96 1563.52 2192.96 1555.27 2192.96 1547.01 2192.96 1538.76ZM2516.51 1537.97C2520.33 1537.97 2523.31 1539.18 2525.46 1541.61 2527.6 1544.03 2528.74 1547.51 2528.86 1552.02 2526.67 1552.16 2524.48 1552.3 2522.29 1552.44 2522.01 1549.94 2521.38 1548.2 2520.43 1547.21 2519.47 1546.22 2518.11 1545.72 2516.35 1545.72 2514.58 1545.72 2513.22 1546.15 2512.26 1547.02 2511.31 1547.88 2510.83 1548.95 2510.83 1550.24 2510.83 1551.5 2511.27 1552.56 2512.13 1553.43 2513 1554.29 2514.99 1555.24 2518.11 1556.27 2521.4 1557.39 2523.79 1558.57 2525.25 1559.8 2526.72 1561.04 2527.84 1562.63 2528.62 1564.58 2529.39 1566.53 2529.78 1568.9 2529.78 1571.69 2529.78 1575.72 2528.72 1579.11 2526.61 1581.85 2524.49 1584.59 2521.18 1585.97 2516.67 1585.97 2508.71 1585.97 2504.27 1580.66 2503.37 1570.04 2505.51 1569.74 2507.64 1569.45 2509.78 1569.15 2510.5 1575.08 2512.86 1578.05 2516.86 1578.05 2518.84 1578.05 2520.4 1577.44 2521.53 1576.23 2522.67 1575.02 2523.24 1573.51 2523.24 1571.72 2523.24 1570.67 2523.04 1569.77 2522.64 1569.03 2522.25 1568.29 2521.64 1567.69 2520.83 1567.21 2520.02 1566.73 2518.06 1565.94 2514.94 1564.82 2512.15 1563.83 2510.1 1562.76 2508.81 1561.6 2507.51 1560.44 2506.48 1558.91 2505.71 1557.03 2504.95 1555.14 2504.56 1553.11 2504.56 1550.94 2504.56 1548.4 2505.05 1546.13 2506.03 1544.1 2507.02 1542.08 2508.37 1540.55 2510.1 1539.52 2511.83 1538.48 2513.97 1537.97 2516.51 1537.97Z" fill-rule="evenodd"/></g></svg>